<svg xmlns="http://www.w3.org/2000/svg" width="161" height="56" viewBox="0 0 161 56"><g transform="translate(-995 -6527)"><rect width="161" height="56" rx="9" transform="translate(995 6527)" fill="#5e77b8"/><text transform="translate(1054 6550)" fill="#fff" font-size="10" font-family="CenturyGothic, Century Gothic"><tspan x="0" y="0">Download on the</tspan></text><text transform="translate(1054 6567)" fill="#fff" font-size="16" font-family="CenturyGothic-Bold, Century Gothic" font-weight="700"><tspan x="0" y="0">App Store</tspan></text><g transform="translate(1005.252 6529.5)"><path d="M31.494,10.821c-3.5,0-4.978,1.718-7.415,1.718-2.5,0-4.405-1.708-7.436-1.708-2.968,0-6.134,1.864-8.144,5.04-2.822,4.478-2.343,12.913,2.229,20.1,1.635,2.572,3.822,5.457,6.686,5.488h.052c2.489,0,3.228-1.677,6.655-1.7h.052c3.374,0,4.051,1.687,6.53,1.687h.052c2.864-.031,5.165-3.228,6.8-5.79a28.485,28.485,0,0,0,2.52-4.853C33.463,28.223,32.4,18.58,38.941,14.883a9.792,9.792,0,0,0-7.446-4.061Z" transform="translate(0 3.041)" fill="#fff"/><path d="M25.523,4.5a9.107,9.107,0,0,0-5.936,3.291,8.283,8.283,0,0,0-1.937,6.332h.167a7.731,7.731,0,0,0,5.811-3.135,8.87,8.87,0,0,0,1.9-6.488Z" transform="translate(5.201)" fill="#fff"/></g></g></svg>