<svg xmlns="http://www.w3.org/2000/svg" width="128.101" height="128.101" viewBox="0 0 128.101 128.101">
  <g id="resume" transform="translate(0)">
    <g id="Group_217" data-name="Group 217" transform="translate(0 0)">
      <path id="Path_178" data-name="Path 178" d="M273,257.487a5.788,5.788,0,0,0,4.176-1.76l9.835-10.084a5.831,5.831,0,0,0-8.35-8.142l-5.77,5.915-1.011-.983a5.831,5.831,0,1,0-8.131,8.361l5.186,5.042A5.8,5.8,0,0,0,273,257.487Zm-6.67-12.316a2.074,2.074,0,0,1,2.929-.041l2.357,2.292a1.881,1.881,0,0,0,2.657-.035l7.081-7.259a2.071,2.071,0,1,1,2.966,2.891L274.485,253.1a2.081,2.081,0,0,1-2.927.039l-5.186-5.042A2.073,2.073,0,0,1,266.332,245.171Z" transform="translate(-196.439 -176.762)" fill="#223f8b"/>
      <path id="Path_179" data-name="Path 179" d="M224.143,217.123a1.88,1.88,0,0,0-3,2.265,24.785,24.785,0,0,0,2.251,2.586,24.459,24.459,0,1,0-6.009-9.844,1.88,1.88,0,0,0,3.583-1.143,20.733,20.733,0,1,1,5.086,8.329A21.055,21.055,0,0,1,224.143,217.123Z" transform="translate(-162.115 -135.118)"/>
      <path id="Path_180" data-name="Path 180" d="M125.513,103.9,113.65,92.038a1.881,1.881,0,0,0-2.66,0l-.073.073-4.565-4.565a33.033,33.033,0,0,0,5.257-15.9,1.88,1.88,0,0,0-3.753-.237A29.3,29.3,0,0,1,78.613,98.862l-.029,0h-.149a29.313,29.313,0,1,1,29.018-34.512,1.88,1.88,0,0,0,3.7-.664,33.11,33.11,0,0,0-17.04-23.354V25.178a1.9,1.9,0,0,0-.551-1.33L70.263.551A1.905,1.905,0,0,0,68.933,0H5.64A5.647,5.647,0,0,0,0,5.64v15.8a1.88,1.88,0,0,0,3.761,0V5.64a1.882,1.882,0,0,1,1.88-1.88H67.054V21.418a5.647,5.647,0,0,0,5.641,5.64h17.66v11.57a33.226,33.226,0,0,0-11.411-2.146.41.41,0,0,0-.056-.006H36.9a1.88,1.88,0,1,0,0,3.76H63.232a32.958,32.958,0,0,0-7.5,5.385H36.9a1.88,1.88,0,1,0,0,3.76H52.347a32.729,32.729,0,0,0-6.171,13.443H36.9a1.88,1.88,0,1,0,0,3.76h8.722q-.13,1.47-.132,2.964,0,1.225.088,2.435H36.905a1.88,1.88,0,1,0,0,3.76h9.167a32.726,32.726,0,0,0,6.28,13.979H36.905a1.88,1.88,0,1,0,0,3.76H55.739a32.955,32.955,0,0,0,7.489,5.377H36.9a1.88,1.88,0,1,0,0,3.76h41.68a33.247,33.247,0,0,0,11.77-2.151v21.99a1.883,1.883,0,0,1-1.88,1.88H5.64a1.883,1.883,0,0,1-1.88-1.88v-93.5a1.88,1.88,0,0,0-3.761,0v93.5A5.647,5.647,0,0,0,5.64,128.1H88.474a5.647,5.647,0,0,0,5.641-5.64V98.768q1.259-.668,2.469-1.452l4.564,4.564a1.9,1.9,0,0,0-.073,2.732l11.863,11.862A8.891,8.891,0,0,0,125.513,103.9ZM72.695,23.3a1.883,1.883,0,0,1-1.88-1.88v-15L87.7,23.3ZM99.651,95.064q1.2-.995,2.332-2.119t2.119-2.332l4.156,4.156-4.451,4.45Zm23.2,18.749a5.155,5.155,0,0,1-7.256,0l-10.534-10.532,7.256-7.255,10.534,10.532A5.154,5.154,0,0,1,122.854,113.813Z" transform="translate(0.001 0)"/>
      <path id="Path_181" data-name="Path 181" d="M55.6,154.946h8.226a4.211,4.211,0,0,0,4.206-4.205v-8.225a4.21,4.21,0,0,0-4.206-4.206H55.6a4.211,4.211,0,0,0-4.206,4.206v8.225A4.211,4.211,0,0,0,55.6,154.946Zm-.445-12.431a.446.446,0,0,1,.445-.445h8.226a.446.446,0,0,1,.445.445v8.225a.446.446,0,0,1-.445.445H55.6a.446.446,0,0,1-.445-.445Z" transform="translate(-38.534 -103.705)" fill="#223f8b"/>
      <path id="Path_182" data-name="Path 182" d="M51.393,256.109a4.21,4.21,0,0,0,4.206,4.205h8.226a4.211,4.211,0,0,0,4.206-4.205v-8.225a4.21,4.21,0,0,0-4.206-4.205H55.6a4.211,4.211,0,0,0-4.206,4.205Zm3.761-8.225a.446.446,0,0,1,.445-.445h8.226a.446.446,0,0,1,.445.445v8.225a.446.446,0,0,1-.445.445H55.6a.446.446,0,0,1-.445-.445Z" transform="translate(-38.534 -182.71)" fill="#223f8b"/>
      <path id="Path_183" data-name="Path 183" d="M51.393,363.616a4.21,4.21,0,0,0,4.206,4.205h8.226a4.211,4.211,0,0,0,4.206-4.205v-8.225a4.21,4.21,0,0,0-4.206-4.206H55.6a4.211,4.211,0,0,0-4.206,4.206Zm3.761-8.225a.446.446,0,0,1,.445-.445h8.226a.446.446,0,0,1,.445.445v8.225a.446.446,0,0,1-.445.445H55.6a.446.446,0,0,1-.445-.445Z" transform="translate(-38.534 -263.32)" fill="#223f8b"/>
    </g>
  </g>
</svg>
